<?xml version="1.0" encoding="utf-8"?>
<!-- Generator: Adobe Illustrator 19.0.0, SVG Export Plug-In . SVG Version: 6.00 Build 0)  -->
<svg xmlns="http://www.w3.org/2000/svg" xmlns:xlink="http://www.w3.org/1999/xlink" version="1.1" id="Layer_1" x="0px" y="0px" viewBox="0 2 98 98" style="enable-background:new 0 2 98 98;" xml:space="preserve" width="512" height="512">
<style type="text/css">
	.st0{fill:url(#SVGID_1_);}
</style>
<linearGradient id="SVGID_1_" gradientUnits="userSpaceOnUse" x1="49" y1="8.9001" x2="49" y2="93.0999">
	<stop offset="0" style="stop-color:#00EFD1"/>
	<stop offset="1" style="stop-color:#00ACEA"/>
</linearGradient>
<path class="st0" d="M90.6,39L90.6,39c-0.1-0.1-0.2-0.1-0.2-0.2c-1.4-1.2-3.2-1.8-5.1-1.8c0.9-4,1.1-7.9,0.3-11.7  C83.6,15.4,76.4,9,67.4,9c-4.3,0-8.9,1.5-13.4,4.4c-4.6-3-9.1-4.5-13.5-4.5c-9.1,0-16.3,6.4-18.2,16.3c-1.3,7,0.3,14.8,4.4,21.7  c-0.3,0.2-0.6,0.5-0.9,0.8c-0.1,0.1-0.1,0.1-0.2,0.2L5.3,71.4c-1,1.2-1,3,0.2,4.1l16.7,16.7c0.6,0.6,1.3,0.9,2.1,0.9  c0.1,0,0.1,0,0.2,0c0.9-0.1,1.7-0.5,2.2-1.2l9-12l31.9-4c2.4-0.3,4.5-1.5,6.2-3.4l17.9-22.3C94.4,46.7,93.9,41.8,90.6,39z   M28.1,26.4c1.4-7.1,6.2-11.5,12.4-11.5c3.6,0,7.6,1.6,11.7,4.6c1.1,0.8,2.5,0.8,3.6,0c4-3,8.1-4.5,11.6-4.5  c6.2,0,10.9,4.4,12.4,11.4c1,5.1-0.1,10.8-3,16c-4.3,5.2-9.8,11.8-11.7,14.1L51,59.9l-1.4-1.6l9.5-3.9c3.9-1.6,5.9-6,4.6-10  c-1.3-4.1-5.6-6.4-9.7-5.3l-21.8,5.5C28.5,38.7,27,32.2,28.1,26.4z M87,46.4L69.2,68.7c-0.6,0.7-1.4,1.2-2.3,1.3l-33.2,4.2  c-0.8,0.1-1.5,0.5-2,1.2l-7.7,10.2L11.6,73.2L30,51.9c0.5-0.5,1.2-0.9,1.9-1l23.5-5.9c1-0.3,2.1,0.3,2.5,1.3  c0.3,1.1-0.2,2.2-1.2,2.6l-13.5,5.5c-0.9,0.4-1.6,1.2-1.8,2.1s0,2,0.7,2.7l5.5,6.1c0.7,0.8,1.9,1.2,2.9,0.9l16.8-4  c0.6-0.2,1.2-0.5,1.6-1c0,0,7.5-9,12.7-15.3l0,0c0,0,0,0,0,0c0.6-0.7,1.2-1.4,1.7-2.1c0.4-0.4,0.9-0.7,1.5-0.8  c0.6-0.1,1.1,0.1,1.5,0.4c0.1,0.1,0.1,0.1,0.2,0.2C87.6,44.3,87.7,45.5,87,46.4z"/>

</svg>
