<?xml version="1.0" encoding="iso-8859-1"?>
<!-- Generator: Adobe Illustrator 19.0.0, SVG Export Plug-In . SVG Version: 6.00 Build 0)  -->
<svg version="1.1" id="Capa_1" xmlns="http://www.w3.org/2000/svg" xmlns:xlink="http://www.w3.org/1999/xlink" x="0px" y="0px"
	 viewBox="0 0 512 512" style="enable-background:new 0 0 512 512;" xml:space="preserve">
<linearGradient id="SVGID_1_" gradientUnits="userSpaceOnUse" x1="256.162" y1="513.9261" x2="256.162" y2="1.6542" gradientTransform="matrix(0.9995 0 0 -0.9995 -0.026 513.6533)">
	<stop  offset="0" style="stop-color:#2AF598"/>
	<stop  offset="1" style="stop-color:#009EFD"/>
</linearGradient>
<path style="fill:url(#SVGID_1_);" d="M469.678,184.867c-6.565-45.896-27.654-88.267-61.025-121.635
	C367.878,22.456,313.664,0,255.999,0S144.121,22.456,103.346,63.231c-33.369,33.369-54.46,75.741-61.024,121.635
	c-24.412,7.595-42.187,30.399-42.187,57.277v63.966c0,33.066,26.902,59.968,59.968,59.968h59.968V182.175H83.31
	c6.59-34.142,23.174-65.542,48.305-90.675C164.839,58.276,209.014,39.979,256,39.979c85.468,0,156.882,61.273,172.652,142.196
	h-36.724v183.902h39.979v5.997c0,33.066-26.902,59.968-59.968,59.968H312.53c-8.252-23.266-30.471-39.979-56.53-39.979
	c-33.066,0-59.968,26.902-59.968,59.968S222.934,512,256,512c26.059,0,48.277-16.713,56.53-39.979h59.408
	c55.111,0,99.947-44.836,99.947-99.947v-9.435c23.266-8.252,39.979-30.471,39.979-56.53v-63.966
	C511.864,215.266,494.09,192.462,469.678,184.867z M80.093,326.099H60.104c-11.022,0-19.989-8.967-19.989-19.989v-63.966
	c0-11.022,8.967-19.989,19.989-19.989h19.989V326.099z M256,472.021c-11.022,0-19.989-8.967-19.989-19.989
	s8.967-19.989,19.989-19.989c11.022,0,19.989,8.967,19.989,19.989S267.022,472.021,256,472.021z M471.885,306.109
	c0,11.022-8.967,19.989-19.989,19.989h-19.989V222.154h19.989c11.022,0,19.989,8.967,19.989,19.989V306.109z"/>
<g>
</g>
<g>
</g>
<g>
</g>
<g>
</g>
<g>
</g>
<g>
</g>
<g>
</g>
<g>
</g>
<g>
</g>
<g>
</g>
<g>
</g>
<g>
</g>
<g>
</g>
<g>
</g>
<g>
</g>
</svg>
